<svg viewBox="0 0 128 128" fill="none" xmlns="http://www.w3.org/2000/svg">
    <path
        d="M125.325 19.9876C123.853 12.1197 119.516 5.92432 114.009 3.82181C104.026 -1.3624e-06 63.9995 0 63.9995 0C63.9995 0 23.9732 -1.3624e-06 13.99 3.82181C8.48375 5.92432 4.146 12.1197 2.674 19.9876C0 34.2477 0 64.0007 0 64.0007C0 64.0007 0 93.7537 2.674 108.012C4.146 115.88 8.48375 122.077 13.99 124.18C23.9732 128 63.9995 128 63.9995 128C63.9995 128 104.026 128 114.009 124.18C119.516 122.077 123.853 115.88 125.325 108.012C128 93.7537 128 64.0007 128 64.0007C128 64.0007 128 34.2477 125.325 19.9876Z"
        fill="#F01D22" />
    <path d="M51.1992 91.4297L84.4537 64.0006L51.1992 36.5715V91.4297Z" fill="#F01D22" />
    <path
        d="M64 24C41.9091 24 24 41.9091 24 64C24 86.0918 41.9091 104 64 104C86.0918 104 104 86.0918 104 64C104 41.9091 86.0918 24 64 24ZM64 96.7273C45.9255 96.7273 31.2727 82.0745 31.2727 64C31.2727 45.9255 45.9255 31.2727 64 31.2727C82.0745 31.2727 96.7273 45.9255 96.7273 64C96.7273 82.0745 82.0745 96.7273 64 96.7273Z"
        fill="white" />
    <line x1="63.667" y1="36.2222" x2="63.667" y2="64.4575" stroke="white" stroke-width="6" />
    <line x1="85.4082" y1="78.2081" x2="62.2792" y2="62.013" stroke="white" stroke-width="6" />
</svg>